<?xml version="1.0" encoding="UTF-8"?>
<svg xmlns="http://www.w3.org/2000/svg" viewBox="0 0 64 64">
  <rect width="64" height="64" rx="14" fill="#5b6ad0"/>
  <g fill="none" stroke="#ffffff" stroke-linejoin="round" stroke-linecap="round">
    <path d="M32 10c1.6 7 6.4 9.9 9.9 14.7 4.8 6.4 4.8 14.9.5 20.5a14.9 14.9 0 0 1-24.5-1c-3.7-5.9-2.7-13.3 2.7-18.7 2.4-2.4 4.3-5.3 4.3-8.8 0-1.9-.3-3.7-1-5.3 4.3 1 6.9 4 8.1 6.6z" stroke-width="4.2"/>
    <path d="M30.4 32.3c1.1 2.6 3.7 4.3 4.5 7.2.8 2.4-.3 5-2.4 6.4a5.9 5.9 0 0 1-7.2-1c-1.9-2.1-1.9-5.3.3-7.7 1.1-1.3 1.9-2.9 1.6-4.8z" stroke-width="3.6"/>
  </g>
</svg>